<?xml version="1.0" encoding="UTF-8"?>
<svg id="Calque_1" data-name="Calque 1" xmlns="http://www.w3.org/2000/svg" xmlns:xlink="http://www.w3.org/1999/xlink" viewBox="0 0 496.04 323.7">
  <defs>
    <style>
      .cls-1 {
        fill: url(#linear-gradient-2);
      }

      .cls-2 {
        fill: url(#linear-gradient-6);
      }

      .cls-3 {
        fill: url(#linear-gradient-5);
      }

      .cls-4 {
        fill: #fff;
        stroke: #fff;
        stroke-miterlimit: 10;
      }

      .cls-5 {
        fill: url(#linear-gradient-3);
      }

      .cls-6 {
        fill: url(#linear-gradient);
      }

      .cls-7 {
        fill: url(#linear-gradient-4);
      }
    </style>
    <linearGradient id="linear-gradient" x1="300.67" y1="158.07" x2="309.99" y2="167.05" gradientUnits="userSpaceOnUse">
      <stop offset=".11" stop-color="#27d6ed"/>
      <stop offset=".25" stop-color="#28cbec"/>
      <stop offset=".48" stop-color="#2cadeb"/>
      <stop offset=".8" stop-color="#327ee9"/>
      <stop offset=".94" stop-color="#3666e8"/>
    </linearGradient>
    <linearGradient id="linear-gradient-2" x1="211.82" y1="382.63" x2="365.06" y2="530.26" gradientTransform="translate(-219.24 480.35) rotate(-97.89)" xlink:href="#linear-gradient"/>
    <linearGradient id="linear-gradient-3" x1="236.83" y1="240.75" x2="390.08" y2="388.38" gradientTransform="translate(545.63 487.72) rotate(174.53)" xlink:href="#linear-gradient"/>
    <linearGradient id="linear-gradient-4" x1="214.02" y1="162.43" x2="367.27" y2="310.06" gradientTransform="translate(435.47 -149.24) rotate(76.04)" xlink:href="#linear-gradient"/>
    <linearGradient id="linear-gradient-5" x1="193.21" y1="60.13" x2="215.73" y2="81.82" xlink:href="#linear-gradient"/>
    <linearGradient id="linear-gradient-6" x1="203.3" y1="59.03" x2="336.23" y2="187.09" xlink:href="#linear-gradient"/>
  </defs>
  <path class="cls-6" d="m310.04,163.68l-10.12-2.9"/>
  <path class="cls-1" d="m216.33,64.07l36.54,27.18c-5.18,10.9-10.36,21.79-15.54,32.69-1.69-1.85-3.38-3.7-5.07-5.55-5.17,2.4-17.43,8.93-26.63,23.09-8.88,13.67-10.06,27.01-10.23,32.72l-24.21-18.01-30.97,41.64c-.23-1.13-.69-3.48-1.07-6.45-8.24-64.75,74.96-116.21,75.36-116.38.21-.08.29-.35.32-.5.28-1.19,1.4-9.77,1.49-10.43Z"/>
  <path class="cls-5" d="m136.74,178.59l28.7-35.36,32,16.9-5.76,4.83s8.18,17.79,21.94,27.58c13.29,9.45,26.56,11.19,32.26,11.61l-19.02,23.42,40.29,32.7c-1.14.19-3.5.55-6.49.8-65.04,5.5-113.09-80.22-113.09-80.22,0,0-.34-.3-.49-.34-1.18-.33-10.35-1.93-10.35-1.93Z"/>
  <path class="cls-7" d="m260.53,259.74l-39.21-23.17c4-11.38,8-22.77,12-34.15,1.88,1.66,3.75,3.32,5.63,4.98,4.89-2.93,16.39-10.72,24.04-25.77,7.39-14.53,7.15-27.92,6.72-33.62l25.97,15.36,26.4-44.67c.35,1.1,1.06,3.39,1.75,6.3,15.03,63.52-62.27,123.48-62.65,123.68-.2.11-.25.38-.27.53-.16,1.21-.36,9.86-.38,10.52Z"/>
  <g>
    <path class="cls-3" d="m214.52,75c.21-.08.29-.35.32-.5.18-.76.7-4.55,1.08-7.35-7.04-.58-14.22-.23-21.48,1.32-2.93.63-5.23,1.28-6.34,1.61l17.58,10.91c5.34-3.86,8.76-5.96,8.84-5.99Z"/>
    <path class="cls-2" d="m317.27,134.04c-.15-.02-.42-.08-.53-.28-.17-.33-43.02-58.1-95.45-65.99l31.57,23.48c-5.18,10.9-10.36,21.79-15.54,32.69-1.69-1.85-3.38-3.7-5.07-5.55-1.97.91-4.97,2.43-8.43,4.73,6.76.45,16.11,2.14,25.92,7.39,14.88,7.97,22.42,19.64,25.25,24.59l-5.1,5.52c11.29,4.24,22.59,8.48,33.88,12.73l24.01-38.7c-.67-.03-9.3-.42-10.51-.6Z"/>
  </g>
  <g>
    <path class="cls-4" d="m182.51,11.08l-1.49,4.5h-1.91l4.87-14.32h2.23l4.89,14.32h-1.98l-1.53-4.5h-5.08Zm4.7-1.45l-1.4-4.12c-.32-.93-.53-1.78-.74-2.61h-.04c-.21.85-.45,1.72-.72,2.59l-1.4,4.14h4.31Z"/>
    <path class="cls-4" d="m201.76.5v12.43c0,.91.02,1.95.08,2.66h-1.68l-.08-1.78h-.04c-.57,1.15-1.83,2.02-3.51,2.02-2.49,0-4.4-2.1-4.4-5.23-.02-3.42,2.1-5.52,4.61-5.52,1.57,0,2.63.74,3.1,1.57h.04V.5h1.87Zm-1.87,8.99c0-.23-.02-.55-.09-.79-.28-1.19-1.3-2.17-2.7-2.17-1.93,0-3.08,1.7-3.08,3.97,0,2.08,1.02,3.8,3.04,3.8,1.25,0,2.4-.83,2.74-2.23.06-.26.09-.51.09-.81v-1.78Z"/>
    <path class="cls-4" d="m210.57,15.58l-.15-1.3h-.06c-.57.81-1.68,1.53-3.14,1.53-2.08,0-3.14-1.47-3.14-2.95,0-2.49,2.21-3.85,6.18-3.82v-.21c0-.85-.23-2.38-2.34-2.38-.96,0-1.95.3-2.68.76l-.43-1.23c.85-.55,2.08-.91,3.38-.91,3.14,0,3.91,2.15,3.91,4.21v3.85c0,.89.04,1.76.17,2.46h-1.7Zm-.28-5.25c-2.04-.04-4.36.32-4.36,2.32,0,1.21.81,1.79,1.76,1.79,1.34,0,2.19-.85,2.49-1.72.06-.19.11-.4.11-.6v-1.78Z"/>
    <path class="cls-4" d="m215.12,8.66c0-1.32-.04-2.38-.08-3.36h1.68l.08,1.76h.04c.76-1.25,1.98-2,3.65-2,2.49,0,4.36,2.1,4.36,5.23,0,3.7-2.25,5.52-4.67,5.52-1.36,0-2.55-.6-3.17-1.61h-.04v5.59h-1.85v-11.13Zm1.85,2.74c0,.28.04.53.08.76.34,1.3,1.47,2.19,2.81,2.19,1.98,0,3.12-1.61,3.12-3.97,0-2.06-1.08-3.82-3.06-3.82-1.28,0-2.46.91-2.83,2.32-.06.23-.13.51-.13.76v1.76Z"/>
    <path class="cls-4" d="m229.47,2.35v2.95h2.68v1.42h-2.68v5.55c0,1.28.36,2,1.4,2,.49,0,.85-.06,1.08-.13l.09,1.4c-.36.15-.94.26-1.66.26-.87,0-1.57-.28-2.02-.79-.53-.55-.72-1.47-.72-2.68v-5.61h-1.59v-1.42h1.59v-2.47l1.83-.49Z"/>
    <path class="cls-4" d="m239.95,15.58l-.15-1.3h-.06c-.57.81-1.68,1.53-3.14,1.53-2.08,0-3.14-1.47-3.14-2.95,0-2.49,2.21-3.85,6.18-3.82v-.21c0-.85-.23-2.38-2.34-2.38-.96,0-1.95.3-2.68.76l-.43-1.23c.85-.55,2.08-.91,3.38-.91,3.14,0,3.91,2.15,3.91,4.21v3.85c0,.89.04,1.76.17,2.46h-1.7Zm-.28-5.25c-2.04-.04-4.36.32-4.36,2.32,0,1.21.81,1.79,1.76,1.79,1.34,0,2.19-.85,2.49-1.72.06-.19.11-.4.11-.6v-1.78Z"/>
    <path class="cls-4" d="m244.41,15.58c.04-.7.08-1.74.08-2.66V.5h1.85v6.46h.04c.66-1.15,1.85-1.89,3.51-1.89,2.55,0,4.36,2.12,4.33,5.25,0,3.68-2.32,5.5-4.61,5.5-1.49,0-2.68-.57-3.44-1.93h-.06l-.08,1.7h-1.61Zm1.93-4.12c0,.23.04.47.08.68.36,1.3,1.45,2.19,2.81,2.19,1.95,0,3.12-1.59,3.12-3.95,0-2.06-1.06-3.82-3.06-3.82-1.28,0-2.46.87-2.85,2.29-.04.21-.11.47-.11.76v1.85Z"/>
    <path class="cls-4" d="m258.68,2.41c.02.64-.45,1.15-1.19,1.15-.66,0-1.13-.51-1.13-1.15s.49-1.17,1.17-1.17,1.15.51,1.15,1.17Zm-2.08,13.17V5.3h1.87v10.28h-1.87Z"/>
    <path class="cls-4" d="m261.57.5h1.87v15.08h-1.87V.5Z"/>
    <path class="cls-4" d="m268.67,2.41c.02.64-.45,1.15-1.19,1.15-.66,0-1.13-.51-1.13-1.15s.49-1.17,1.17-1.17,1.15.51,1.15,1.17Zm-2.08,13.17V5.3h1.87v10.28h-1.87Z"/>
    <path class="cls-4" d="m273.81,2.35v2.95h2.68v1.42h-2.68v5.55c0,1.28.36,2,1.4,2,.49,0,.85-.06,1.08-.13l.09,1.4c-.36.15-.94.26-1.66.26-.87,0-1.57-.28-2.02-.79-.53-.55-.72-1.47-.72-2.68v-5.61h-1.59v-1.42h1.59v-2.47l1.83-.49Z"/>
    <path class="cls-4" d="m279.51,10.78c.04,2.53,1.66,3.57,3.53,3.57,1.34,0,2.15-.23,2.85-.53l.32,1.34c-.66.3-1.78.64-3.42.64-3.17,0-5.06-2.08-5.06-5.18s1.83-5.54,4.82-5.54c3.36,0,4.25,2.95,4.25,4.84,0,.38-.04.68-.06.87h-7.22Zm5.48-1.34c.02-1.19-.49-3.04-2.59-3.04-1.89,0-2.72,1.74-2.87,3.04h5.46Zm.45-8.58l-2.59,3.04h-1.34l1.87-3.04h2.06Z"/>
  </g>
  <text/>
  <g>
    <path class="cls-4" d="m.5,147.95c1.05-.21,2.55-.33,3.98-.33,2.21,0,3.64.41,4.64,1.31.81.71,1.26,1.81,1.26,3.05,0,2.12-1.33,3.52-3.02,4.1v.07c1.24.43,1.98,1.57,2.36,3.24.52,2.24.91,3.79,1.24,4.41h-2.14c-.26-.45-.62-1.83-1.07-3.83-.48-2.21-1.33-3.05-3.22-3.12h-1.95v6.95H.5v-15.84Zm2.07,7.31h2.12c2.21,0,3.62-1.21,3.62-3.05,0-2.07-1.5-2.98-3.69-3-1,0-1.71.1-2.05.19v5.86Z"/>
    <path class="cls-4" d="m15.82,149.02c.02.71-.5,1.29-1.33,1.29-.74,0-1.26-.57-1.26-1.29s.55-1.31,1.31-1.31,1.29.57,1.29,1.31Zm-2.33,14.77v-11.53h2.1v11.53h-2.1Z"/>
    <path class="cls-4" d="m28.99,152.26c-.05.83-.1,1.76-.1,3.17v6.69c0,2.64-.52,4.26-1.64,5.26-1.12,1.05-2.74,1.38-4.19,1.38s-2.91-.33-3.83-.95l.52-1.6c.76.48,1.95.91,3.38.91,2.14,0,3.72-1.12,3.72-4.02v-1.29h-.05c-.64,1.07-1.88,1.93-3.67,1.93-2.86,0-4.91-2.43-4.91-5.62,0-3.91,2.55-6.12,5.19-6.12,2,0,3.1,1.05,3.6,2h.05l.1-1.74h1.83Zm-2.17,4.55c0-.36-.02-.67-.12-.95-.38-1.21-1.41-2.22-2.93-2.22-2,0-3.43,1.69-3.43,4.36,0,2.26,1.14,4.14,3.41,4.14,1.29,0,2.45-.81,2.91-2.14.12-.36.17-.76.17-1.12v-2.07Z"/>
    <path class="cls-4" d="m42.03,160.65c0,1.19.02,2.24.1,3.14h-1.86l-.12-1.88h-.05c-.55.93-1.76,2.14-3.81,2.14-1.81,0-3.98-1-3.98-5.05v-6.74h2.1v6.38c0,2.19.67,3.67,2.57,3.67,1.41,0,2.38-.98,2.76-1.91.12-.31.19-.69.19-1.07v-7.07h2.1v8.38Z"/>
    <path class="cls-4" d="m46.68,158.41c.05,2.83,1.86,4,3.95,4,1.5,0,2.41-.26,3.19-.6l.36,1.5c-.74.33-2,.71-3.83.71-3.55,0-5.67-2.33-5.67-5.81s2.05-6.22,5.41-6.22c3.76,0,4.76,3.31,4.76,5.43,0,.43-.05.76-.07.98h-8.1Zm6.14-1.5c.02-1.33-.55-3.41-2.91-3.41-2.12,0-3.05,1.95-3.22,3.41h6.12Z"/>
    <path class="cls-4" d="m67.1,160.65c0,1.19.02,2.24.1,3.14h-1.86l-.12-1.88h-.05c-.55.93-1.76,2.14-3.81,2.14-1.81,0-3.98-1-3.98-5.05v-6.74h2.1v6.38c0,2.19.67,3.67,2.57,3.67,1.41,0,2.38-.98,2.76-1.91.12-.31.19-.69.19-1.07v-7.07h2.1v8.38Z"/>
    <path class="cls-4" d="m70.58,155.86c0-1.36-.02-2.52-.1-3.6h1.83l.07,2.26h.1c.52-1.55,1.79-2.52,3.19-2.52.24,0,.41.02.6.07v1.98c-.21-.05-.43-.07-.71-.07-1.48,0-2.52,1.12-2.81,2.69-.05.29-.1.62-.1.98v6.14h-2.07v-7.93Z"/>
  </g>
  <g>
    <path class="cls-4" d="m378.31,161.04l-1.83,5.55h-2.35l5.99-17.64h2.75l6.02,17.64h-2.44l-1.88-5.55h-6.25Zm5.78-1.78l-1.73-5.08c-.39-1.15-.65-2.2-.92-3.22h-.05c-.26,1.05-.55,2.12-.89,3.19l-1.73,5.1h5.31Z"/>
    <path class="cls-4" d="m401.69,163.13c0,1.31.03,2.46.11,3.45h-2.04l-.13-2.07h-.05c-.6,1.02-1.94,2.35-4.19,2.35-1.99,0-4.37-1.1-4.37-5.55v-7.41h2.3v7.01c0,2.41.73,4.03,2.83,4.03,1.54,0,2.62-1.07,3.03-2.09.13-.34.21-.76.21-1.18v-7.77h2.3v9.21Z"/>
    <path class="cls-4" d="m408.3,150.28v3.64h3.3v1.75h-3.3v6.83c0,1.57.45,2.46,1.73,2.46.6,0,1.05-.08,1.33-.16l.1,1.73c-.44.18-1.15.31-2.04.31-1.07,0-1.93-.34-2.48-.97-.65-.68-.89-1.81-.89-3.3v-6.91h-1.96v-1.75h1.96v-3.04l2.25-.6Z"/>
    <path class="cls-4" d="m425.49,160.15c0,4.68-3.25,6.73-6.31,6.73-3.43,0-6.07-2.51-6.07-6.52,0-4.24,2.77-6.73,6.28-6.73s6.1,2.64,6.1,6.52Zm-10.05.13c0,2.77,1.6,4.87,3.85,4.87s3.85-2.07,3.85-4.92c0-2.15-1.07-4.87-3.79-4.87s-3.9,2.51-3.9,4.92Z"/>
    <path class="cls-4" d="m428.41,157.35c0-1.31-.03-2.38-.11-3.43h2.04l.13,2.09h.05c.63-1.2,2.09-2.38,4.19-2.38,1.75,0,4.47,1.05,4.47,5.39v7.56h-2.3v-7.3c0-2.04-.76-3.74-2.93-3.74-1.52,0-2.7,1.07-3.09,2.35-.1.29-.16.68-.16,1.07v7.62h-2.3v-9.24Z"/>
    <path class="cls-4" d="m454.4,160.15c0,4.68-3.25,6.73-6.31,6.73-3.43,0-6.07-2.51-6.07-6.52,0-4.24,2.77-6.73,6.28-6.73s6.1,2.64,6.1,6.52Zm-10.05.13c0,2.77,1.6,4.87,3.85,4.87s3.85-2.07,3.85-4.92c0-2.15-1.07-4.87-3.79-4.87s-3.9,2.51-3.9,4.92Z"/>
    <path class="cls-4" d="m457.32,157.35c0-1.31-.03-2.38-.11-3.43h2.02l.1,2.04h.08c.71-1.2,1.88-2.33,3.98-2.33,1.73,0,3.03,1.05,3.58,2.54h.05c.39-.71.89-1.26,1.41-1.65.76-.58,1.6-.89,2.8-.89,1.67,0,4.16,1.1,4.16,5.5v7.46h-2.25v-7.17c0-2.43-.89-3.9-2.75-3.9-1.31,0-2.33.97-2.72,2.09-.1.31-.18.73-.18,1.15v7.82h-2.25v-7.59c0-2.01-.89-3.48-2.64-3.48-1.44,0-2.48,1.15-2.85,2.3-.13.34-.18.73-.18,1.13v7.64h-2.25v-9.24Z"/>
    <path class="cls-4" d="m481.72,150.36c.03.79-.55,1.41-1.47,1.41-.81,0-1.39-.63-1.39-1.41s.6-1.44,1.44-1.44,1.41.63,1.41,1.44Zm-2.56,16.23v-12.67h2.3v12.67h-2.3Z"/>
    <path class="cls-4" d="m486.56,160.67c.05,3.11,2.04,4.4,4.34,4.4,1.65,0,2.64-.29,3.51-.65l.39,1.65c-.81.37-2.2.79-4.21.79-3.9,0-6.23-2.56-6.23-6.39s2.25-6.83,5.94-6.83c4.13,0,5.23,3.64,5.23,5.97,0,.47-.05.84-.08,1.07h-8.9Zm6.75-1.65c.03-1.47-.6-3.74-3.19-3.74-2.33,0-3.35,2.15-3.53,3.74h6.73Z"/>
  </g>
  <g>
    <path class="cls-4" d="m162.2,320.81c.8.49,1.96.9,3.19.9,1.82,0,2.88-.96,2.88-2.35,0-1.29-.74-2.02-2.59-2.74-2.25-.8-3.64-1.96-3.64-3.9,0-2.15,1.78-3.74,4.45-3.74,1.41,0,2.43.33,3.04.68l-.49,1.45c-.45-.25-1.37-.65-2.61-.65-1.88,0-2.59,1.12-2.59,2.06,0,1.29.84,1.92,2.74,2.66,2.33.9,3.51,2.02,3.51,4.04,0,2.13-1.57,3.96-4.82,3.96-1.33,0-2.78-.39-3.51-.88l.45-1.49Z"/>
    <path class="cls-4" d="m173.58,318.36c.04,2.43,1.59,3.43,3.39,3.43,1.29,0,2.06-.22,2.74-.51l.31,1.29c-.63.29-1.72.61-3.29.61-3.04,0-4.86-2-4.86-4.98s1.76-5.33,4.64-5.33c3.23,0,4.09,2.84,4.09,4.66,0,.37-.04.65-.06.84h-6.94Zm5.27-1.29c.02-1.14-.47-2.92-2.49-2.92-1.82,0-2.61,1.68-2.76,2.92h5.25Z"/>
    <path class="cls-4" d="m182.82,315.76c0-1.02-.02-1.86-.08-2.68h1.59l.1,1.63h.04c.49-.94,1.63-1.86,3.27-1.86,1.37,0,3.49.82,3.49,4.21v5.9h-1.8v-5.7c0-1.59-.59-2.92-2.29-2.92-1.18,0-2.1.84-2.41,1.84-.08.22-.12.53-.12.84v5.94h-1.8v-7.21Z"/>
    <path class="cls-4" d="m193.92,321.13c.53.35,1.47.72,2.37.72,1.31,0,1.92-.65,1.92-1.47s-.51-1.33-1.84-1.82c-1.78-.63-2.61-1.61-2.61-2.8,0-1.59,1.29-2.9,3.41-2.9,1,0,1.88.29,2.43.61l-.45,1.31c-.39-.24-1.1-.57-2.02-.57-1.06,0-1.65.61-1.65,1.35,0,.82.59,1.18,1.88,1.67,1.72.65,2.59,1.51,2.59,2.98,0,1.74-1.35,2.96-3.7,2.96-1.08,0-2.08-.27-2.78-.67l.45-1.37Z"/>
    <path class="cls-4" d="m215.13,308.47v11.95c0,.88.02,1.88.08,2.55h-1.61l-.08-1.72h-.04c-.55,1.1-1.76,1.94-3.37,1.94-2.39,0-4.23-2.02-4.23-5.02-.02-3.29,2.02-5.31,4.43-5.31,1.51,0,2.53.72,2.98,1.51h.04v-5.9h1.8Zm-1.8,8.64c0-.22-.02-.53-.08-.76-.27-1.14-1.25-2.08-2.59-2.08-1.86,0-2.96,1.63-2.96,3.82,0,2,.98,3.66,2.92,3.66,1.21,0,2.31-.8,2.63-2.14.06-.25.08-.49.08-.78v-1.72Z"/>
    <path class="cls-4" d="m226.39,320.28c0,1.02.02,1.92.08,2.7h-1.59l-.1-1.61h-.04c-.47.8-1.51,1.84-3.27,1.84-1.55,0-3.41-.86-3.41-4.33v-5.78h1.8v5.47c0,1.88.57,3.15,2.21,3.15,1.21,0,2.04-.84,2.37-1.63.1-.27.16-.59.16-.92v-6.07h1.8v7.19Z"/>
    <path class="cls-4" d="m243.39,322.52c-.65.33-1.96.65-3.64.65-3.88,0-6.8-2.45-6.8-6.97s2.92-7.23,7.19-7.23c1.72,0,2.8.37,3.27.61l-.43,1.45c-.67-.33-1.63-.57-2.78-.57-3.23,0-5.37,2.06-5.37,5.68,0,3.37,1.94,5.54,5.29,5.54,1.08,0,2.19-.22,2.9-.57l.37,1.41Z"/>
    <path class="cls-4" d="m254.29,317.95c0,3.66-2.53,5.25-4.92,5.25-2.68,0-4.74-1.96-4.74-5.09,0-3.31,2.17-5.25,4.9-5.25s4.76,2.06,4.76,5.09Zm-7.84.1c0,2.17,1.25,3.8,3,3.8s3-1.62,3-3.84c0-1.67-.84-3.8-2.96-3.8s-3.04,1.96-3.04,3.84Z"/>
    <path class="cls-4" d="m256.56,315.76c0-1.02-.02-1.86-.08-2.68h1.59l.1,1.63h.04c.49-.94,1.63-1.86,3.27-1.86,1.37,0,3.49.82,3.49,4.21v5.9h-1.8v-5.7c0-1.59-.59-2.92-2.29-2.92-1.18,0-2.1.84-2.41,1.84-.08.22-.12.53-.12.84v5.94h-1.8v-7.21Z"/>
    <path class="cls-4" d="m269.99,310.25v2.84h2.57v1.37h-2.57v5.33c0,1.23.35,1.92,1.35,1.92.47,0,.82-.06,1.04-.12l.08,1.35c-.35.14-.9.25-1.59.25-.84,0-1.51-.27-1.94-.76-.51-.53-.69-1.41-.69-2.57v-5.39h-1.53v-1.37h1.53v-2.37l1.76-.47Z"/>
    <path class="cls-4" d="m280.06,322.97l-.14-1.25h-.06c-.55.78-1.61,1.47-3.02,1.47-2,0-3.02-1.41-3.02-2.84,0-2.39,2.12-3.7,5.94-3.68v-.2c0-.82-.22-2.29-2.25-2.29-.92,0-1.88.29-2.57.74l-.41-1.18c.82-.53,2-.88,3.25-.88,3.02,0,3.76,2.06,3.76,4.04v3.7c0,.86.04,1.7.16,2.37h-1.63Zm-.27-5.04c-1.96-.04-4.19.31-4.19,2.23,0,1.16.78,1.72,1.7,1.72,1.29,0,2.1-.82,2.39-1.65.06-.18.1-.39.1-.57v-1.71Z"/>
    <path class="cls-4" d="m291.48,322.6c-.47.24-1.51.57-2.84.57-2.98,0-4.92-2.02-4.92-5.05s2.08-5.25,5.31-5.25c1.06,0,2,.27,2.49.51l-.41,1.39c-.43-.24-1.1-.47-2.08-.47-2.27,0-3.49,1.67-3.49,3.74,0,2.29,1.47,3.7,3.43,3.7,1.02,0,1.7-.27,2.21-.49l.31,1.35Z"/>
    <path class="cls-4" d="m296.02,310.25v2.84h2.57v1.37h-2.57v5.33c0,1.23.35,1.92,1.35,1.92.47,0,.82-.06,1.04-.12l.08,1.35c-.35.14-.9.25-1.59.25-.84,0-1.51-.27-1.94-.76-.51-.53-.69-1.41-.69-2.57v-5.39h-1.53v-1.37h1.53v-2.37l1.76-.47Z"/>
  </g>
  <text/>
</svg>